<svg height="200" width="200" xmlns="http://www.w3.org/2000/svg" viewBox="0 0 329.562 329.562" xml:space="preserve"><path d="m326.174 272.923-139.5-241.568a25.28 25.28 0 0 0-21.893-12.638 25.278 25.278 0 0 0-21.893 12.638L3.388 272.923a25.278 25.278 0 0 0 21.893 37.923h279a25.281 25.281 0 0 0 21.893-37.923zM25.281 285.565l139.5-241.568 139.5 241.568h-279z"/><path d="m147.281 131.031 7.25 83c.423 4.886 4.301 8.913 9.355 9.355 5.661.495 10.651-3.694 11.145-9.355l7.25-83c.078-.97.088-2.057 0-3.057-.844-9.666-9.363-16.816-19.028-15.973-9.665.845-16.816 9.366-15.972 19.03z"/><circle cx="164.781" cy="243.031" r="14.5"/></svg>